<?xml version="1.0" encoding="UTF-8" standalone="no"?>
<svg
   xmlns:dc="http://purl.org/dc/elements/1.1/"
   xmlns:cc="http://creativecommons.org/ns#"
   xmlns:rdf="http://www.w3.org/1999/02/22-rdf-syntax-ns#"
   xmlns:svg="http://www.w3.org/2000/svg"
   xmlns="http://www.w3.org/2000/svg"
   xmlns:sodipodi="http://sodipodi.sourceforge.net/DTD/sodipodi-0.dtd"
   xmlns:inkscape="http://www.inkscape.org/namespaces/inkscape"
   width="64"
   height="64"
   version="1.1"
   viewBox="0 0 16.933 16.933"
   id="svg31"
   sodipodi:docname="dist_logo.svg"
   inkscape:version="1.0.2 (e86c870879, 2021-01-15)">
  <metadata
     id="metadata35">
    <rdf:RDF>
      <cc:Work
         rdf:about="">
        <dc:format>image/svg+xml</dc:format>
        <dc:type
           rdf:resource="http://purl.org/dc/dcmitype/StillImage" />
      </cc:Work>
    </rdf:RDF>
  </metadata>
  <sodipodi:namedview
     pagecolor="#505050"
     bordercolor="#eeeeee"
     borderopacity="1"
     objecttolerance="10"
     gridtolerance="10"
     guidetolerance="10"
     inkscape:pageopacity="0"
     inkscape:pageshadow="2"
     inkscape:window-width="1920"
     inkscape:window-height="1030"
     id="namedview33"
     showgrid="false"
     inkscape:zoom="10.702288"
     inkscape:cx="19.479509"
     inkscape:cy="36.538645"
     inkscape:window-x="0"
     inkscape:window-y="24"
     inkscape:window-maximized="1"
     inkscape:current-layer="svg31" />
  <defs
     id="defs5">
    <filter
       id="filter1099"
       x="-.025191"
       y="-.029088"
       width="1.0504"
       height="1.0582"
       color-interpolation-filters="sRGB">
      <feGaussianBlur
         stdDeviation="1.6827374"
         id="feGaussianBlur2" />
    </filter>
  </defs>
  <g
     id="g931">
    <path
       sodipodi:type="star"
       style="fill:#ffffff;stroke:#ffffff;stroke-width:0.264578;stroke-opacity:1"
       id="path862"
       sodipodi:sides="6"
       sodipodi:cx="6.1442409"
       sodipodi:cy="8.240344"
       sodipodi:r1="5.5021482"
       sodipodi:r2="4.7649999"
       sodipodi:arg1="2.6179939"
       sodipodi:arg2="3.1415927"
       inkscape:flatsided="true"
       inkscape:rounded="0"
       inkscape:randomized="0"
       transform="matrix(1.2578797,0.72623721,-0.72623721,1.2578797,6.7222285,-6.361038)"
       d="m 1.3792407,10.991418 1e-7,-5.5021481 4.7650002,-2.751074 4.765,2.7510742 0,5.5021479 -4.7650003,2.751074 z" />
    <g
       transform="matrix(0.09441474,0,0,0.09441474,30.284854,63.679186)"
       stroke-width="13.912"
       id="g29">
      <g
         transform="translate(-238.36,-56.329)"
         fill="#666666"
         filter="url(#filter1099)"
         id="g11">
        <path
           d="m -12.56,-562.8 -19.829,34.344 19.829,34.345 H 27.094 L 7.262,-528.456 27.094,-562.8 Z m 39.654,0 19.832,34.344 -19.829,-34.344 z m 19.832,34.344 -19.832,34.345 h 0.0031 z"
           id="path7" />
        <path
           d="m -32.811,-597.88 -40.079,69.418 40.079,69.419 h 80.158 l 40.079,-69.419 -40.079,-69.418 -9.4718,16.406 30.607,53.013 -30.607,53.013 h -61.214 l -30.607,-53.013 30.607,-53.013 h 42.27 l 4.7362,-8.2031 4.7356,-8.2026 z"
           id="path9" />
      </g>
      <path
         d="m -211.27,-619.13 0.004,0.008 0.005,-0.008 z m 0.009,0 0.003,0.005 h -0.002 l 0.006,0.0109 18.085,31.318 -14.136,-24.485 15.872,27.487 -19.824,-34.336 z m -39.658,0.005 -19.826,34.339 0.002,0.003 -0.002,0.003 19.826,34.339 19.827,-34.339 h -39.642 l -0.002,-0.003 0.002,-0.003 h 39.642 z m 59.485,34.352 -14.818,25.66 13.081,-22.659 -18.085,31.318 -0.006,0.0109 h 0.002 l -0.003,0.005 h 0.003 z m -19.827,34.336 -0.005,-0.008 -0.004,0.008 z"
         fill="#afc6e9"
         id="path13" />
      <g
         fill="#00aad4"
         id="g21">
        <path
           d="m -191.45,-584.78 0.004,-0.008 0.005,0.008 z m 0.009,0 19.827,-34.336 -19.824,34.336 z m -39.658,-0.005 -19.826,-34.339 0.005,-0.008 0.005,0.008 h 39.642 z m 57.748,-37.354 -18.085,-31.318 -0.006,-0.0109 h 0.003 l 0.005,0.008 z"
           id="path15" />
        <path
           d="m -191.45,-584.79 0.004,0.008 0.005,-0.008 z m 0.009,0 19.827,34.336 -19.824,-34.336 z m -39.658,0.005 -19.826,34.339 0.005,0.008 0.005,-0.008 h 39.642 z m 57.748,37.354 -18.085,31.318 -0.006,0.0109 h 0.003 l 0.005,-0.008 z"
           id="path17" />
        <path
           d="m -271.17,-654.21 9.4718,16.406 h 42.27 l 4.7361,-8.2031 4.7356,-8.2026 z"
           id="path19" />
      </g>
      <path
         d="m -271.17,-654.21 -40.079,69.418 40.079,69.419 h 5.2e-4 l 9.4718,-16.406 -30.607,-53.013 30.607,-53.013 -9.4718,-16.406 z"
         fill="#aaccff"
         id="path23" />
      <path
         d="m -261.7,-531.77 -9.4718,16.406 h 80.158 l -9.4718,-16.406 -5.1e-4,5.1e-4 h -61.214 z"
         fill="#00aad4"
         id="path25" />
      <path
         d="m -191.01,-654.21 40.079,69.418 -40.079,69.419 h -5.2e-4 l -9.4718,-16.406 30.607,-53.013 -30.607,-53.013 9.4718,-16.406 z"
         fill="#216778"
         id="path27" />
    </g>
  </g>
</svg>
